<svg xmlns="http://www.w3.org/2000/svg" width="112" height="32" viewBox="0 0 84 24"><g fill="#df2831"><path d="M.57 1.125h4.258v18h6.453l.54 3.781H.57zm0 0M12.988 17.477v-4.59c0-3.48 1.051-5.672 5.793-5.672 4.739 0 5.82 2.191 5.82 5.672v4.59c0 3.418-1.113 5.699-5.82 5.699-4.71 0-5.793-2.281-5.793-5.7zm7.621 0v-4.473c0-1.527 0-2.457-1.8-2.457-1.797 0-1.829.93-1.829 2.457v4.383c0 1.5 0 2.43 1.829 2.43 1.832 0 1.8-.93 1.8-2.43zm0 0M25.95 7.395h1.472v-4.41h3.988v4.41h2.55v3.359h-2.55v7.2c0 1.171.211 1.683 1.352 1.683h1.199v3.36h-1.89c-3.93 0-4.65-1.532-4.65-4.743v-7.5H25.95zm0 0M35.64 17.477v-4.59c0-3.48 1.051-5.672 5.79-5.672 4.742 0 5.82 2.191 5.82 5.672v4.59c0 3.418-1.11 5.699-5.82 5.699-4.711 0-5.79-2.281-5.79-5.7zm7.622 0v-4.473c0-1.527-.153-2.457-1.801-2.457-1.652 0-1.832.93-1.832 2.457v4.383c0 1.5 0 2.43 1.832 2.43 1.828 0 1.8-.93 1.8-2.43zm0 0M49.2.824h4.019v7.95a3.427 3.427 0 013.332-1.56c3.898 0 4.258 2.31 4.258 5.673v4.59c0 3.386-.48 5.699-4.41 5.699a3.663 3.663 0 01-3.18-1.29v1.11h-4.02zm7.62 16.563v-4.383c0-1.527 0-2.457-1.742-2.457-1.738 0-1.828.719-1.86 1.918v4.922c0 1.5 0 2.43 1.86 2.43 1.863 0 1.742-.93 1.742-2.43zm0 0M62.46 17.477v-4.59c0-3.48 1.052-5.672 5.79-5.672 4.738 0 5.82 2.191 5.82 5.672v4.59c0 3.418-1.11 5.699-5.82 5.699s-5.79-2.281-5.79-5.7zm7.618 0v-4.473c0-1.527-.148-2.457-1.828-2.457-1.68 0-1.8.93-1.8 2.457v4.383c0 1.5.152 2.43 1.8 2.43 1.648 0 1.828-.93 1.828-2.43zm0 0M75.422 7.395h1.437v-4.41H81v4.41h2.55v3.359H81v7.2c0 1.171.21 1.683 1.32 1.683h1.23v3.36h-1.89c-3.93 0-4.68-1.532-4.68-4.743v-7.5h-1.44zm0 0"/></g></svg>