<svg xmlns="http://www.w3.org/2000/svg" viewBox="0 0 512 512"><path fill="#aaa" d="M426.667 192a42.418 42.418 0 00-21.604 5.885C402.677 176.594 384.573 160 362.667 160c-10.417 0-19.99 3.771-27.427 10.052-7.469-12.406-21.063-20.719-36.573-20.719a42.372 42.372 0 00-21.333 5.729V42.667C277.333 19.135 258.198 0 234.667 0S192 19.135 192 42.667v285.479c0 5.375-3.542 8.135-5.063 9.073s-5.615 2.865-10.375.469l-68.5-34.25a45.355 45.355 0 00-20.208-4.771c-24.917 0-45.188 20.271-45.188 45.188V352c0 2.958 1.229 5.781 3.385 7.802l123.115 114.906C194.937 498.75 228.542 512 263.781 512h66.885c76.458 0 138.667-62.208 138.667-138.667V234.667c0-23.532-19.135-42.667-42.666-42.667z"/></svg>